<?xml version="1.0" encoding="UTF-8" standalone="no"?>
<svg
   version="1.1"
   id="Layer_1"
   x="0px"
   y="0px"
   width="100%"
   viewBox="0 0 1024 1024"
   enable-background="new 0 0 1024 1024"
   xml:space="preserve"
   sodipodi:docname="JF_Elevate_logo.svg"
   inkscape:version="1.4.2 (f4327f4, 2025-05-13)"
   xmlns:inkscape="http://www.inkscape.org/namespaces/inkscape"
   xmlns:sodipodi="http://sodipodi.sourceforge.net/DTD/sodipodi-0.dtd"
   xmlns="http://www.w3.org/2000/svg"
   xmlns:svg="http://www.w3.org/2000/svg"><defs
   id="defs5" /><sodipodi:namedview
   id="namedview5"
   pagecolor="#505050"
   bordercolor="#ffffff"
   borderopacity="1"
   inkscape:showpageshadow="0"
   inkscape:pageopacity="0"
   inkscape:pagecheckerboard="1"
   inkscape:deskcolor="#505050"
   inkscape:zoom="0.55726091"
   inkscape:cx="297.8856"
   inkscape:cy="485.40997"
   inkscape:window-width="1920"
   inkscape:window-height="1009"
   inkscape:window-x="-8"
   inkscape:window-y="-8"
   inkscape:window-maximized="1"
   inkscape:current-layer="Layer_1" />
<path
   fill="#000000"
   opacity="1"
   stroke="none"
   d="m 694.10873,342.75471 c 33.2131,-39.58352 73.92024,-59.92302 116.03668,-76.94297 38.26112,-15.46192 75.22524,-34.42666 108.63575,-62.96848 31.08716,-26.55698 55.06996,-60.35394 68.49302,-104.92514 0.59203,-1.965835 1.25489,-3.898484 1.89292,-5.842446 1.39717,-4.256659 2.71633,-8.616373 7.14788,-9.177295 5.01642,-0.63503 7.71732,3.331912 9.92892,8.022728 5.2228,11.077713 7.5896,23.471193 8.9049,35.905543 7.4795,70.71348 -8.3171,132.86382 -44.96977,187.10389 -1.53012,2.26423 -4.0935,3.89868 -3.36728,8.20803 5.99646,-0.24103 11.15842,-4.06812 16.71613,-5.95426 10.40738,-3.53184 14.66257,0.31366 13.22011,13.73493 -2.28301,21.24323 -7.06278,41.76055 -13.7874,61.48961 -15.25357,44.75133 -40.29497,79.54426 -71.03987,108.4775 -1.97657,1.86015 -4.457,3.03321 -5.90797,7.14461 5.5229,2.25436 11.05013,0.59475 16.39573,1.07643 8.9788,0.80953 12.053,6.24683 8.01659,15.87612 -20.42159,48.71745 -48.47961,88.17079 -88.91296,112.05239 -6.28309,3.71095 -13.08287,6.24771 -19.81878,8.51552 -7.10118,2.39087 -11.98586,-1.93997 -14.57232,-10.10071 -2.63771,-8.32255 -0.76542,-15.27663 5.41172,-19.79109 3.60351,-2.63364 7.60573,-4.43297 11.46774,-6.49292 24.49999,-13.0677 44.60149,-33.11581 61.06036,-59.47847 -2.88654,-3.28534 -6.10426,-1.98103 -8.97253,-2.03094 -14.01253,-0.24457 -28.03296,0.0511 -42.0415,-0.34403 -10.80744,-0.30472 -16.97946,-6.16944 -18.02965,-16.07215 -1.07749,-10.16051 2.55896,-16.15224 13.25092,-20.66774 36.56354,-15.44201 70.40749,-36.69043 96.97685,-72.70202 14.72262,-19.95449 26.21161,-42.6493 33.43875,-69.56346 -4.85644,-0.36601 -8.55153,2.0928 -12.30481,3.70242 -36.02357,15.44884 -72.25083,30.08177 -108.99609,42.63565 -4.01978,1.37328 -8.2264,2.67156 -12.34227,2.65174 -7.09153,-0.0343 -11.47258,-5.38493 -12.85076,-13.84234 -1.37891,-8.4628 1.9348,-14.53832 8.13012,-17.34684 6.82173,-3.09268 14.00585,-4.91036 20.92153,-7.71061 71.84172,-29.08998 122.84672,-84.65302 143.98855,-177.8287 2.05276,-9.04649 3.01662,-18.48169 4.41595,-27.753 0.1391,-0.92129 -0.21291,-1.95832 -0.52879,-4.46114 -3.03293,4.46602 -5.50186,8.06252 -7.93754,11.69393 -29.83328,44.48066 -69.06318,71.70989 -110.89114,94.03523 -35.0358,18.70016 -72.16633,30.71147 -106.64459,51.11352 -49.43484,29.25265 -84.33298,74.27462 -96.39521,143.08957 -1.92474,10.98101 -2.72157,22.06538 -2.70987,33.33234 0.0744,71.82069 0.006,143.64191 -0.0171,215.46285 -10e-4,4.20395 0.10139,8.41646 -0.0722,12.61028 -0.45725,11.04702 -5.57383,17.84431 -13.27309,17.8515 -7.8746,0.007 -12.85763,-6.58684 -12.92507,-17.93247 -0.12915,-21.71989 0.0353,-43.44236 0.0261,-65.16366 -0.006,-14.02377 -0.0471,-14.09652 -11.10793,-14.11077 -73.43786,-0.0942 -146.87561,-0.15235 -220.31342,-0.2325 -4.48431,-0.005 -9.01354,0.39418 -13.44462,-0.23917 -15.91135,-2.27463 -13.33079,0.58639 -13.36267,16.41258 -0.0416,20.67016 0.0215,41.34045 8.3e-4,62.01074 -0.01,9.40294 -2.9292,16.4136 -10.73198,18.75353 -8.41099,2.52239 -15.52541,-4.68407 -15.89227,-17.1323 -0.44266,-15.0232 0.0379,-30.08759 0.0779,-45.13441 0.14982,-56.3779 0.0756,-112.75799 0.47751,-169.13294 0.45293,-63.52579 -16.66501,-117.07978 -55.97309,-158.63374 -22.4328,-23.71459 -48.58574,-38.56927 -75.92956,-50.6668 -34.83942,-15.41372 -70.12036,-29.3768 -103.42591,-49.77257 -34.135737,-20.90421 -65.14179,-46.68254 -86.958421,-86.85455 -0.431139,-0.79381 -1.128985,-1.36135 -2.505656,-2.97753 -0.500151,12.27224 1.805347,22.98623 4.234187,33.39034 21.670704,92.82813 71.21228,150.55461 144.47413,178.06471 5.8912,2.21206 12.01373,3.47718 17.87843,5.78034 8.9364,3.50944 12.99858,11.7999 10.90502,21.24925 -2.07072,9.34661 -9.2029,14.46933 -18.11177,11.6347 -17.07991,-5.43434 -34.16141,-10.9986 -50.97112,-17.58949 -24.56939,-9.6334 -49.27392,-18.81564 -73.339537,-30.376 -0.692172,-0.33245 -1.542079,-0.15202 -2.864316,-0.25206 1.565459,13.15066 6.96415,23.87774 11.800506,34.67616 23.176902,51.74822 60.285777,81.51403 103.537977,101.32781 5.5188,2.5283 11.22778,4.42208 16.70638,7.06957 8.62478,4.16788 12.33386,11.55232 10.87345,20.77986 -1.44532,9.13235 -6.87327,14.49123 -16.19977,14.68678 -16.81268,0.3526 -33.63245,0.16989 -50.4493,0.21018 -1.06266,0.003 -2.12533,3.8e-4 -4.55853,3.8e-4 14.68797,24.37637 32.20844,42.25854 52.69053,55.74032 6.18572,4.07163 12.81622,7.07906 19.05157,11.0442 7.63904,4.8577 10.379,13.13431 7.61513,21.57682 -2.87767,8.79026 -9.00204,12.37418 -17.26572,9.36908 -27.70673,-10.07583 -50.13908,-30.66438 -69.96981,-56.04864 -14.17514,-18.14485 -25.93684,-38.58108 -35.129676,-61.26422 -5.772316,-14.24307 -3.473235,-18.8571 9.523496,-18.87993 4.90793,-0.01 9.81587,-10e-4 16.51139,-10e-4 C 110.1196,501.25294 104.52699,496.1544 99.127735,490.75381 58.977381,450.59494 34.31283,398.75325 24.54347,335.75559 c -0.528407,-3.40756 -0.809331,-6.9768 -0.645875,-10.42946 0.371727,-7.85164 3.813571,-11.5701 10.100283,-9.71134 6.501546,1.9222 12.900666,4.38562 19.742627,6.74994 0.425493,-3.92724 -2.141886,-5.53398 -3.56578,-7.63313 C 16.549682,265.1626 0.72708222,207.97426 3.8080843,143.07641 4.6338669,125.68195 6.6823342,108.23421 13.604831,92.450747 15.980469,87.034246 18.462847,81.859803 24.236804,82.437211 29.373972,82.950912 30.86616,88.28292 32.342437,93.207794 53.217615,162.84735 95.14388,205.37193 147.79649,234.73182 c 35.12963,19.58874 72.41359,31.65708 107.88789,49.95182 61.67116,31.8049 104.98117,84.37765 121.40529,167.37639 2.76253,13.96046 4.14878,28.19447 4.11105,42.62308 -0.0724,27.67697 0.0665,55.35651 -0.20506,83.03003 -0.0751,7.6516 2.01164,10.54045 8.24904,10.53147 80.1647,-0.11574 160.32963,-0.0759 240.49417,0.14688 6.75162,0.0188 8.60593,-3.5598 8.68098,-11.37718 0.28847,-30.11519 -0.78902,-60.24154 0.66226,-90.34904 2.59334,-53.79681 19.9749,-99.13481 49.89679,-137.3913 1.56615,-2.00234 3.13476,-4.00152 5.12983,-6.51929 z"
   id="path1"
   style="stroke-width:1.88041" />
<path
   fill="#000000"
   opacity="1"
   stroke="none"
   d="m 706.84276,543.91769 c 15.5793,0.48618 20.05797,4.98308 20.26564,22.28405 0.40858,34.04272 0.17494,68.09495 0.21671,102.14319 0.0321,26.23961 0.10726,52.47925 0.10926,78.71888 0.001,17.15355 -5.12017,22.73714 -20.78673,22.816 -5.04339,0.0253 -10.08935,0.0835 -15.12997,-0.0573 -11.85599,-0.33085 -16.71583,-5.70869 -16.75361,-19.09619 -0.0996,-35.29847 -0.0266,-70.59739 -0.0295,-105.89618 -0.002,-26.23986 -0.0353,-52.4796 -0.0166,-78.71945 0.0113,-16.43357 4.71879,-21.72179 19.57106,-22.07828 3.92145,-0.0941 7.84493,-0.0784 12.55377,-0.11484 z"
   id="path2"
   style="stroke-width:1.77591" />
<path
   fill="#000000"
   opacity="1"
   stroke="none"
   d="m 344.41907,690.55595 c 0.002,20.90495 0.0434,40.87246 -0.01,60.83972 -0.0335,12.61579 -4.93873,18.2715 -16.18416,18.6279 -5.59209,0.17704 -11.19307,0.0486 -16.78964,0.004 -13.55026,-0.10658 -19.82725,-7.06388 -19.84397,-22.50025 -0.0331,-30.57471 0.0174,-61.15023 0.20639,-91.72413 0.19279,-31.1703 0.56395,-62.33957 0.91714,-93.50826 0.14814,-13.06969 5.10602,-18.40849 17.1162,-18.58223 5.596,-0.0809 11.19406,-0.0386 16.79072,0.009 13.49781,0.11428 17.76675,5.01205 17.7749,20.47588 0.0221,41.80681 0.0163,83.6135 0.0221,126.35798 z"
   id="path3"
   style="stroke-width:1.77591" />
<path
   fill="#000000"
   opacity="1"
   stroke="none"
   d="m 787.51658,711.81569 c -2.54756,12.15868 -6.74711,16.33823 -16.67487,16.80061 -5.30517,0.24708 -10.6396,0.26265 -15.94067,-0.0472 -11.06243,-0.64641 -16.27654,-6.59121 -16.3829,-18.90268 -0.30438,-35.23162 -0.52582,-70.46461 -0.63032,-105.6976 -0.0362,-12.23319 5.50925,-18.78239 16.38024,-18.88449 25.63385,-0.24079 34.0782,-2.641 33.18466,32.4503 -0.42038,16.50703 -0.17657,33.03684 -0.14228,49.55613 0.0304,14.64014 0.18725,29.28006 0.20614,44.72489 z"
   id="path4"
   style="stroke-width:1.77591" />
<path
   fill="#000000"
   opacity="1"
   stroke="none"
   d="m 232.3147,615.62487 c 0.0133,-27.97821 2.5588,-30.76721 27.00002,-30.50536 17.14095,0.18357 21.28412,4.75763 21.2989,23.73333 0.0257,33.04255 0.0344,66.08535 -0.0171,99.12781 -0.0233,14.96185 -4.83237,20.343 -17.96825,20.75388 -27.30267,0.8539 -31.30736,-3.50351 -30.4885,-32.70221 0.74226,-26.4708 0.16876,-52.98764 0.17498,-80.40745 z"
   id="path5"
   style="stroke-width:1.77591" />
</svg>
